<svg width="106" height="18" viewBox="0 0 106 18" fill="none" xmlns="http://www.w3.org/2000/svg">
<path d="M7.485 11.14H3.555L2.925 13H0.24L4.05 2.47H7.02L10.83 13H8.115L7.485 11.14ZM6.825 9.16L5.52 5.305L4.23 9.16H6.825ZM14.5546 1.9V13H11.9896V1.9H14.5546ZM18.9784 1.9V13H16.4134V1.9H18.9784ZM23.5059 8.815C23.5059 7.945 23.6809 7.185 24.0309 6.535C24.3909 5.885 24.8859 5.385 25.5159 5.035C26.1559 4.685 26.8859 4.51 27.7059 4.51C28.7559 4.51 29.6309 4.785 30.3309 5.335C31.0409 5.885 31.5059 6.66 31.7259 7.66H28.9959C28.7659 7.02 28.3209 6.7 27.6609 6.7C27.1909 6.7 26.8159 6.885 26.5359 7.255C26.2559 7.615 26.1159 8.135 26.1159 8.815C26.1159 9.495 26.2559 10.02 26.5359 10.39C26.8159 10.75 27.1909 10.93 27.6609 10.93C28.3209 10.93 28.7659 10.61 28.9959 9.97H31.7259C31.5059 10.95 31.0409 11.72 30.3309 12.28C29.6209 12.84 28.7459 13.12 27.7059 13.12C26.8859 13.12 26.1559 12.945 25.5159 12.595C24.8859 12.245 24.3909 11.745 24.0309 11.095C23.6809 10.445 23.5059 9.685 23.5059 8.815ZM32.588 8.8C32.588 7.94 32.748 7.185 33.068 6.535C33.398 5.885 33.843 5.385 34.403 5.035C34.963 4.685 35.588 4.51 36.278 4.51C36.868 4.51 37.383 4.63 37.823 4.87C38.273 5.11 38.618 5.425 38.858 5.815V4.63H41.423V13H38.858V11.815C38.608 12.205 38.258 12.52 37.808 12.76C37.368 13 36.853 13.12 36.263 13.12C35.583 13.12 34.963 12.945 34.403 12.595C33.843 12.235 33.398 11.73 33.068 11.08C32.748 10.42 32.588 9.66 32.588 8.8ZM38.858 8.815C38.858 8.175 38.678 7.67 38.318 7.3C37.968 6.93 37.538 6.745 37.028 6.745C36.518 6.745 36.083 6.93 35.723 7.3C35.373 7.66 35.198 8.16 35.198 8.8C35.198 9.44 35.373 9.95 35.723 10.33C36.083 10.7 36.518 10.885 37.028 10.885C37.538 10.885 37.968 10.7 38.318 10.33C38.678 9.96 38.858 9.455 38.858 8.815ZM47.9436 10.825V13H46.6386C45.7086 13 44.9836 12.775 44.4636 12.325C43.9436 11.865 43.6836 11.12 43.6836 10.09V6.76H42.6636V4.63H43.6836V2.59H46.2486V4.63H47.9286V6.76H46.2486V10.12C46.2486 10.37 46.3086 10.55 46.4286 10.66C46.5486 10.77 46.7486 10.825 47.0286 10.825H47.9436ZM57.2624 8.68C57.2624 8.92 57.2474 9.17 57.2174 9.43H51.4124C51.4524 9.95 51.6174 10.35 51.9074 10.63C52.2074 10.9 52.5724 11.035 53.0024 11.035C53.6424 11.035 54.0874 10.765 54.3374 10.225H57.0674C56.9274 10.775 56.6724 11.27 56.3024 11.71C55.9424 12.15 55.4874 12.495 54.9374 12.745C54.3874 12.995 53.7724 13.12 53.0924 13.12C52.2724 13.12 51.5424 12.945 50.9024 12.595C50.2624 12.245 49.7624 11.745 49.4024 11.095C49.0424 10.445 48.8624 9.685 48.8624 8.815C48.8624 7.945 49.0374 7.185 49.3874 6.535C49.7474 5.885 50.2474 5.385 50.8874 5.035C51.5274 4.685 52.2624 4.51 53.0924 4.51C53.9024 4.51 54.6224 4.68 55.2524 5.02C55.8824 5.36 56.3724 5.845 56.7224 6.475C57.0824 7.105 57.2624 7.84 57.2624 8.68ZM54.6374 8.005C54.6374 7.565 54.4874 7.215 54.1874 6.955C53.8874 6.695 53.5124 6.565 53.0624 6.565C52.6324 6.565 52.2674 6.69 51.9674 6.94C51.6774 7.19 51.4974 7.545 51.4274 8.005H54.6374ZM61.7955 4.51C62.3855 4.51 62.9005 4.63 63.3405 4.87C63.7905 5.11 64.1355 5.425 64.3755 5.815V4.63H66.9405V12.985C66.9405 13.755 66.7855 14.45 66.4755 15.07C66.1755 15.7 65.7105 16.2 65.0805 16.57C64.4605 16.94 63.6855 17.125 62.7555 17.125C61.5155 17.125 60.5105 16.83 59.7405 16.24C58.9705 15.66 58.5305 14.87 58.4205 13.87H60.9555C61.0355 14.19 61.2255 14.44 61.5255 14.62C61.8255 14.81 62.1955 14.905 62.6355 14.905C63.1655 14.905 63.5855 14.75 63.8955 14.44C64.2155 14.14 64.3755 13.655 64.3755 12.985V11.8C64.1255 12.19 63.7805 12.51 63.3405 12.76C62.9005 13 62.3855 13.12 61.7955 13.12C61.1055 13.12 60.4805 12.945 59.9205 12.595C59.3605 12.235 58.9155 11.73 58.5855 11.08C58.2655 10.42 58.1055 9.66 58.1055 8.8C58.1055 7.94 58.2655 7.185 58.5855 6.535C58.9155 5.885 59.3605 5.385 59.9205 5.035C60.4805 4.685 61.1055 4.51 61.7955 4.51ZM64.3755 8.815C64.3755 8.175 64.1955 7.67 63.8355 7.3C63.4855 6.93 63.0555 6.745 62.5455 6.745C62.0355 6.745 61.6005 6.93 61.2405 7.3C60.8905 7.66 60.7155 8.16 60.7155 8.8C60.7155 9.44 60.8905 9.95 61.2405 10.33C61.6005 10.7 62.0355 10.885 62.5455 10.885C63.0555 10.885 63.4855 10.7 63.8355 10.33C64.1955 9.96 64.3755 9.455 64.3755 8.815ZM72.6062 13.12C71.7862 13.12 71.0462 12.945 70.3862 12.595C69.7362 12.245 69.2212 11.745 68.8412 11.095C68.4712 10.445 68.2862 9.685 68.2862 8.815C68.2862 7.955 68.4762 7.2 68.8562 6.55C69.2362 5.89 69.7562 5.385 70.4162 5.035C71.0762 4.685 71.8162 4.51 72.6362 4.51C73.4562 4.51 74.1962 4.685 74.8562 5.035C75.5162 5.385 76.0362 5.89 76.4162 6.55C76.7962 7.2 76.9862 7.955 76.9862 8.815C76.9862 9.675 76.7912 10.435 76.4012 11.095C76.0212 11.745 75.4962 12.245 74.8262 12.595C74.1662 12.945 73.4262 13.12 72.6062 13.12ZM72.6062 10.9C73.0962 10.9 73.5112 10.72 73.8512 10.36C74.2012 10 74.3762 9.485 74.3762 8.815C74.3762 8.145 74.2062 7.63 73.8662 7.27C73.5362 6.91 73.1262 6.73 72.6362 6.73C72.1362 6.73 71.7212 6.91 71.3912 7.27C71.0612 7.62 70.8962 8.135 70.8962 8.815C70.8962 9.485 71.0562 10 71.3762 10.36C71.7062 10.72 72.1162 10.9 72.6062 10.9ZM80.912 6.025C81.212 5.565 81.587 5.205 82.037 4.945C82.487 4.675 82.987 4.54 83.537 4.54V7.255H82.832C82.192 7.255 81.712 7.395 81.392 7.675C81.072 7.945 80.912 8.425 80.912 9.115V13H78.347V4.63H80.912V6.025ZM86.053 3.76C85.603 3.76 85.233 3.63 84.943 3.37C84.663 3.1 84.523 2.77 84.523 2.38C84.523 1.98 84.663 1.65 84.943 1.39C85.233 1.12 85.603 0.984999 86.053 0.984999C86.493 0.984999 86.853 1.12 87.133 1.39C87.423 1.65 87.568 1.98 87.568 2.38C87.568 2.77 87.423 3.1 87.133 3.37C86.853 3.63 86.493 3.76 86.053 3.76ZM87.328 4.63V13H84.763V4.63H87.328ZM97.0768 8.68C97.0768 8.92 97.0618 9.17 97.0318 9.43H91.2268C91.2668 9.95 91.4318 10.35 91.7218 10.63C92.0218 10.9 92.3868 11.035 92.8168 11.035C93.4568 11.035 93.9018 10.765 94.1518 10.225H96.8818C96.7418 10.775 96.4868 11.27 96.1168 11.71C95.7568 12.15 95.3018 12.495 94.7518 12.745C94.2018 12.995 93.5868 13.12 92.9068 13.12C92.0868 13.12 91.3568 12.945 90.7168 12.595C90.0768 12.245 89.5768 11.745 89.2168 11.095C88.8568 10.445 88.6768 9.685 88.6768 8.815C88.6768 7.945 88.8518 7.185 89.2018 6.535C89.5618 5.885 90.0618 5.385 90.7018 5.035C91.3418 4.685 92.0768 4.51 92.9068 4.51C93.7168 4.51 94.4368 4.68 95.0668 5.02C95.6968 5.36 96.1868 5.845 96.5368 6.475C96.8968 7.105 97.0768 7.84 97.0768 8.68ZM94.4518 8.005C94.4518 7.565 94.3018 7.215 94.0018 6.955C93.7018 6.695 93.3268 6.565 92.8768 6.565C92.4468 6.565 92.0818 6.69 91.7818 6.94C91.4918 7.19 91.3118 7.545 91.2418 8.005H94.4518ZM101.835 13.12C101.105 13.12 100.455 12.995 99.885 12.745C99.315 12.495 98.865 12.155 98.535 11.725C98.205 11.285 98.02 10.795 97.98 10.255H100.515C100.545 10.545 100.68 10.78 100.92 10.96C101.16 11.14 101.455 11.23 101.805 11.23C102.125 11.23 102.37 11.17 102.54 11.05C102.72 10.92 102.81 10.755 102.81 10.555C102.81 10.315 102.685 10.14 102.435 10.03C102.185 9.91 101.78 9.78 101.22 9.64C100.62 9.5 100.12 9.355 99.72 9.205C99.32 9.045 98.975 8.8 98.685 8.47C98.395 8.13 98.25 7.675 98.25 7.105C98.25 6.625 98.38 6.19 98.64 5.8C98.91 5.4 99.3 5.085 99.81 4.855C100.33 4.625 100.945 4.51 101.655 4.51C102.705 4.51 103.53 4.77 104.13 5.29C104.74 5.81 105.09 6.5 105.18 7.36H102.81C102.77 7.07 102.64 6.84 102.42 6.67C102.21 6.5 101.93 6.415 101.58 6.415C101.28 6.415 101.05 6.475 100.89 6.595C100.73 6.705 100.65 6.86 100.65 7.06C100.65 7.3 100.775 7.48 101.025 7.6C101.285 7.72 101.685 7.84 102.225 7.96C102.845 8.12 103.35 8.28 103.74 8.44C104.13 8.59 104.47 8.84 104.76 9.19C105.06 9.53 105.215 9.99 105.225 10.57C105.225 11.06 105.085 11.5 104.805 11.89C104.535 12.27 104.14 12.57 103.62 12.79C103.11 13.01 102.515 13.12 101.835 13.12Z" fill="#151515"/>
</svg>
